HIERARCHY
ROOT Hips
{
	OFFSET 0.000000 0.000000 0.000000
	CHANNELS 6 Xposition Yposition Zposition Xrotation Yrotation Zrotation
	JOINT LeftUpLeg_virtual
	{
		OFFSET 0.000000 0.000000 0.000000
		CHANNELS 3 Xrotation Yrotation Zrotation
		JOINT LeftUpLeg
		{
			OFFSET 10.205400 -3.823500 0.155100
			CHANNELS 3 Xrotation Yrotation Zrotation
			JOINT LeftLeg
			{
				OFFSET 0.708757 -12.982077 0.567790
				CHANNELS 3 Xrotation Yrotation Zrotation
				JOINT LeftFoot
				{
					OFFSET -0.708756 -10.717838 -2.184338
					CHANNELS 3 Xrotation Yrotation Zrotation
					JOINT LeftToeBase
					{
						OFFSET 0.108149 -7.191104 7.560241
						CHANNELS 3 Xrotation Yrotation Zrotation
						JOINT LeftToe_End
						{
							OFFSET 0.070230 0.081724 4.490308
							CHANNELS 3 Xrotation Yrotation Zrotation
							End Site
							{
								OFFSET 0 0 0
							}
						}
					}
				}
			}
		}
	}
	JOINT RightUpLeg_virtual
	{
		OFFSET 0.000000 0.000000 0.000000
		CHANNELS 3 Xrotation Yrotation Zrotation
		JOINT RightUpLeg
		{
			OFFSET -10.205400 -3.823500 0.005500
			CHANNELS 3 Xrotation Yrotation Zrotation
			JOINT RightLeg
			{
				OFFSET -0.708756 -12.982134 0.610632
				CHANNELS 3 Xrotation Yrotation Zrotation
				JOINT RightFoot
				{
					OFFSET 0.708754 -10.717769 -1.945823
					CHANNELS 3 Xrotation Yrotation Zrotation
					JOINT RightToeBase
					{
						OFFSET -0.108140 -7.191069 7.372968
						CHANNELS 3 Xrotation Yrotation Zrotation
						JOINT RightToe_End
						{
							OFFSET -0.070227 0.081735 4.479403
							CHANNELS 3 Xrotation Yrotation Zrotation
							End Site
							{
								OFFSET 0 0 0
							}
						}
					}
				}
			}
		}
	}
	JOINT Spine_virtual
	{
		OFFSET 0.000000 0.000000 0.000000
		CHANNELS 3 Xrotation Yrotation Zrotation
		JOINT Spine
		{
			OFFSET 0.000000 6.876099 0.125700
			CHANNELS 3 Xrotation Yrotation Zrotation
			JOINT Spine1
			{
				OFFSET 0.000000 5.730043 0.104720
				CHANNELS 3 Xrotation Yrotation Zrotation
				JOINT Spine1_split
				{
					OFFSET 0.000000 5.730043 0.104720
					CHANNELS 3 Xrotation Yrotation Zrotation
					JOINT Spine2
					{
						OFFSET 0.000000 5.730043 0.104720
						CHANNELS 3 Xrotation Yrotation Zrotation
						JOINT Neck_virtual
						{
							OFFSET 0.000000 0.000000 0.000000
							CHANNELS 3 Xrotation Yrotation Zrotation
							JOINT Neck
							{
								OFFSET 0.000000 10.314075 0.188496
								CHANNELS 3 Xrotation Yrotation Zrotation
								JOINT Head
								{
									OFFSET 0.000000 7.643700 -2.377400
									CHANNELS 3 Xrotation Yrotation Zrotation
									JOINT HeadTop_End
									{
										OFFSET 0.000000 43.788605 -13.619600
										CHANNELS 3 Xrotation Yrotation Zrotation
										End Site
										{
											OFFSET 0 0 0
										}
									}
								}
							}
						}
						JOINT LeftShoulder_virtual
						{
							OFFSET 0.000000 0.000000 0.000000
							CHANNELS 3 Xrotation Yrotation Zrotation
							JOINT LeftShoulder
							{
								OFFSET 2.196100 4.412489 0.087492
								CHANNELS 3 Xrotation Yrotation Zrotation
								JOINT LeftShoulder_split
								{
									OFFSET 2.196100 4.412489 0.087492
									CHANNELS 3 Xrotation Yrotation Zrotation
									JOINT LeftArm
									{
										OFFSET 8.771219 -2.981674 -0.026999
										CHANNELS 3 Xrotation Yrotation Zrotation
										JOINT LeftForeArm
										{
											OFFSET 8.512804 0.000000 -0.000000
											CHANNELS 3 Xrotation Yrotation Zrotation
											JOINT LeftHand
											{
												OFFSET 18.484802 0.000000 -0.000000
												CHANNELS 3 Xrotation Yrotation Zrotation
												End Site
												{
													OFFSET 0 0 0
												}
											}
										}
									}
								}
							}
						}
						JOINT RightShoulder_virtual
						{
							OFFSET 0.000000 0.000000 0.000000
							CHANNELS 3 Xrotation Yrotation Zrotation
							JOINT RightShoulder
							{
								OFFSET -2.196100 4.412496 0.070690
								CHANNELS 3 Xrotation Yrotation Zrotation
								JOINT RightShoulder_split
								{
									OFFSET -2.196100 4.412496 0.070690
									CHANNELS 3 Xrotation Yrotation Zrotation
									JOINT RightArm
									{
										OFFSET -8.771282 -2.981682 -0.094208
										CHANNELS 3 Xrotation Yrotation Zrotation
										JOINT RightForeArm
										{
											OFFSET -8.494598 0.000000 0.000000
											CHANNELS 3 Xrotation Yrotation Zrotation
											JOINT RightHand
											{
												OFFSET -18.483803 0.000000 0.000001
												CHANNELS 3 Xrotation Yrotation Zrotation
												End Site
												{
													OFFSET 0 0 0
												}
											}
										}
									}
								}
							}
						}
					}
				}
			}
		}
	}
}
MOTION
Frames: 9
Frame Time: 0.03333333
-0.964887 33.891563 -0.467507 0.000000 0.000000 0.000000 -5.479065 -12.100210 -1.231996 4.580626 20.856531 2.945908 18.292543 3.258822 0.400892 -17.398659 0.527254 -3.958156 -0.077387 -0.000316 -0.084729 0.000000 0.000000 0.000000 -5.479065 -12.100210 -1.231996 -7.577793 -7.972745 -13.468413 20.560468 -11.097692 0.718232 -4.564217 -2.549348 11.946083 -0.002830 0.000060 0.000571 0.000000 0.000000 0.000000 -5.479065 -12.100210 -1.231996 12.257025 1.541397 -1.481610 -3.993954 -8.493233 0.813504 0.000000 0.000000 0.000000 0.000000 0.000000 0.000000 -5.969559 4.580067 -2.629902 11.255318 0.027613 0.080739 -1.984799 -0.580070 3.370286 0.000000 0.000000 0.000000 -5.969559 4.580067 -2.629902 4.233554 -14.085168 -0.897005 0.000000 0.000000 0.000000 5.919386 4.805984 -79.119402 2.144035 -12.162861 0.993666 0.000000 0.000000 0.000000 -5.969559 4.580067 -2.629902 3.456621 7.912204 4.381405 0.000000 0.000000 0.000000 4.870326 0.880827 78.811832 0.216075 17.510307 -0.089616 0.000000 0.000000 0.000000 
-1.003418 33.860416 -0.518565 0.000000 0.000000 0.000000 -5.400428 -11.733169 -1.248296 3.613761 20.879858 3.414911 19.405295 2.732265 0.342723 -17.718960 0.583248 -3.843534 -0.077594 -0.000318 -0.084320 0.000000 0.000000 0.000000 -5.400428 -11.733169 -1.248296 -7.715459 -7.934037 -13.480177 20.902592 -11.167393 0.860479 -4.801997 -2.475200 11.931474 -0.002797 0.000029 0.000572 0.000000 0.000000 0.000000 -5.400428 -11.733169 -1.248296 12.258580 1.558937 -1.652530 -4.018685 -8.493298 0.862145 0.000000 0.000000 0.000000 0.000000 0.000000 0.000000 -6.005033 4.580156 -2.583795 11.160981 -0.091042 0.230802 -1.910301 -0.714432 3.577411 0.000000 0.000000 0.000000 -6.005033 4.580156 -2.583795 4.037694 -13.737904 -1.155439 0.000000 0.000000 0.000000 5.705730 4.632380 -78.161488 2.775897 -11.939523 0.681365 0.000000 0.000000 0.000000 -6.005033 4.580156 -2.583795 3.306766 7.693745 4.690939 0.000000 0.000000 0.000000 5.157379 2.358713 78.058960 0.618391 17.828501 0.086454 0.000000 0.000000 0.000000 
-1.022761 33.825657 -0.587650 0.000000 0.000000 0.000000 -5.114574 -11.258944 -1.341262 1.997076 20.999400 4.117924 21.060335 1.845682 0.272804 -18.227676 0.742608 -3.554916 -0.078414 -0.000334 -0.082514 0.000000 0.000000 0.000000 -5.114574 -11.258944 -1.341262 -7.903846 -7.919531 -13.345877 20.935237 -11.472588 0.938332 -4.832059 -2.309441 11.972944 -0.002814 0.000026 0.000569 0.000000 0.000000 0.000000 -5.114574 -11.258944 -1.341262 12.028195 1.519896 -1.690605 -4.022318 -8.545089 0.875560 0.000000 0.000000 0.000000 0.000000 0.000000 0.000000 -5.995742 4.530747 -2.565629 11.168335 -0.150681 0.337645 -2.005923 -0.852418 3.997330 0.000000 0.000000 0.000000 -5.995742 4.530747 -2.565629 3.847711 -13.403314 -1.405377 0.000000 0.000000 0.000000 5.532349 4.526078 -77.237015 3.314021 -11.916844 0.364352 0.000000 0.000000 0.000000 -5.995742 4.530747 -2.565629 3.160107 7.466495 4.995546 0.000000 0.000000 0.000000 5.215065 3.771405 77.294997 1.040019 17.904634 0.279767 0.000000 0.000000 0.000000 
-1.029644 33.789417 -0.666960 0.000000 0.000000 0.000000 -4.820143 -10.794562 -1.445067 0.362212 21.197402 4.896911 22.733205 2.032091 0.257644 -18.760248 -0.196000 -3.702492 -0.078376 -0.000335 -0.082561 0.000000 0.000000 0.000000 -4.820143 -10.794562 -1.445067 -8.109000 -7.901270 -13.233389 20.935174 -11.822787 1.004809 -4.814259 -2.089883 12.048427 -0.002837 0.000052 0.000584 0.000000 0.000000 0.000000 -4.820143 -10.794562 -1.445067 11.801436 1.472131 -1.690129 -4.021569 -8.603176 0.869361 0.000000 0.000000 0.000000 0.000000 0.000000 0.000000 -5.990045 4.474534 -2.565252 11.212783 -0.270846 0.439726 -2.185509 -1.078970 4.511955 0.000000 0.000000 0.000000 -5.990045 4.474534 -2.565252 3.662323 -13.070533 -1.648133 0.000000 0.000000 0.000000 5.339314 4.445790 -76.353025 3.819330 -12.052618 0.052240 0.000000 0.000000 0.000000 -5.990045 4.474534 -2.565252 3.014131 7.214289 5.302224 0.000000 0.000000 0.000000 5.073870 4.893756 76.538383 1.483921 17.779554 0.540773 0.000000 0.000000 0.000000 
-1.003803 33.745525 -0.769228 0.000000 0.000000 0.000000 -4.633074 -10.455277 -1.528371 -1.080145 21.518286 5.465940 24.247117 1.564079 0.244648 -19.209764 -0.514538 -3.490117 -0.078411 -0.000315 -0.082540 0.000000 0.000000 0.000000 -4.633074 -10.455277 -1.528371 -8.409138 -7.839308 -13.301458 21.104779 -12.047177 1.136075 -4.781096 -1.840521 12.135107 -0.002843 0.000095 0.000596 0.000000 0.000000 0.000000 -4.633074 -10.455277 -1.528371 11.752338 1.435161 -1.680704 -4.019515 -8.647271 0.852223 0.000000 0.000000 0.000000 0.000000 0.000000 0.000000 -5.999135 4.429883 -2.578216 11.255252 -0.429730 0.536183 -2.417931 -1.351025 5.046245 0.000000 0.000000 0.000000 -5.999135 4.429883 -2.578216 3.481324 -12.737621 -1.884071 0.000000 0.000000 0.000000 5.205351 4.394308 -75.517495 4.278824 -12.401802 -0.251136 0.000000 0.000000 0.000000 -5.999135 4.429883 -2.578216 2.869889 6.911954 5.597183 0.000000 0.000000 0.000000 4.698830 5.508286 75.841867 1.984554 17.408136 0.926946 0.000000 0.000000 0.000000 
-0.939114 33.699440 -0.896472 0.000000 0.000000 0.000000 -4.331948 -10.235499 -1.618863 -2.690312 21.935999 5.986024 25.807451 1.120157 0.245127 -19.671935 -0.841518 -3.182489 -0.078507 -0.000329 -0.082289 0.000000 0.000000 0.000000 -4.331948 -10.235499 -1.618863 -8.902633 -7.743639 -13.440376 21.156125 -12.197120 1.309843 -4.551922 -1.566338 12.205189 -0.002823 0.000034 0.000572 0.000000 0.000000 0.000000 -4.331948 -10.235499 -1.618863 11.614048 1.396856 -1.684231 -4.002078 -8.711189 0.880598 0.000000 0.000000 0.000000 0.000000 0.000000 0.000000 -5.995279 4.369636 -2.543675 11.160667 -0.634940 0.657966 -2.709031 -1.648954 5.519508 0.000000 0.000000 0.000000 -5.995279 4.369636 -2.543675 3.303993 -12.396701 -2.113938 0.000000 0.000000 0.000000 4.900775 4.265191 -74.848799 4.577800 -12.645131 -0.596842 0.000000 0.000000 0.000000 -5.995279 4.369636 -2.543675 2.733292 6.607567 5.869505 0.000000 0.000000 0.000000 4.319520 5.743786 75.143720 2.550489 17.078120 1.382673 0.000000 0.000000 0.000000 
-0.814380 33.658791 -1.050716 0.000000 0.000000 0.000000 -3.842393 -10.266591 -1.742752 -4.467851 22.451950 6.419585 27.348883 0.786810 0.255974 -20.157767 -1.116292 -2.762921 -0.079390 -0.000320 -0.080424 0.000000 0.000000 0.000000 -3.842393 -10.266591 -1.742752 -9.692181 -7.595461 -13.669696 20.731026 -12.094589 1.581150 -3.802490 -1.149822 12.153457 -0.016501 -0.008361 0.020923 0.000000 0.000000 0.000000 -3.842393 -10.266591 -1.742752 11.299988 1.368171 -1.638168 -3.957096 -8.773481 0.907031 0.000000 0.000000 0.000000 0.000000 0.000000 0.000000 -5.957069 4.311467 -2.511667 10.947093 -0.855699 0.934834 -3.001909 -1.917161 5.919935 0.000000 0.000000 0.000000 -5.957069 4.311467 -2.511667 3.129910 -12.041349 -2.338459 0.000000 0.000000 0.000000 4.542491 4.070549 -74.271409 4.740065 -13.008832 -0.968567 0.000000 0.000000 0.000000 -5.957069 4.311467 -2.511667 2.593988 6.341091 6.188737 0.000000 0.000000 0.000000 3.979818 5.914472 74.320484 3.163619 16.757825 1.845597 0.000000 0.000000 0.000000 
-0.658679 33.634293 -1.220237 0.000000 0.000000 0.000000 -3.595467 -10.739571 -1.785834 -5.344667 23.125118 6.421661 28.069354 0.690658 0.282160 -20.381471 -1.240779 -2.368480 -0.078207 -0.000354 -0.082954 0.000000 0.000000 0.000000 -3.595467 -10.739571 -1.785834 -11.105981 -7.290374 -14.141562 21.147109 -11.474246 2.077568 -3.162524 -0.541893 11.225319 0.100004 -0.025764 0.226059 0.000000 0.000000 0.000000 -3.595467 -10.739571 -1.785834 11.332083 1.376889 -1.845951 -3.951500 -8.771148 0.971270 0.000000 0.000000 0.000000 0.000000 0.000000 0.000000 -5.965580 4.308958 -2.448212 10.686417 -0.959575 1.227268 -3.355223 -2.051502 6.262510 0.000000 0.000000 0.000000 -5.965580 4.308958 -2.448212 2.958822 -11.665146 -2.557997 0.000000 0.000000 0.000000 4.270706 3.837314 -73.705295 4.702361 -13.511349 -1.384571 0.000000 0.000000 0.000000 -5.965580 4.308958 -2.448212 2.440845 6.080240 6.627423 0.000000 0.000000 0.000000 3.700331 5.911071 73.442278 3.856665 16.453851 2.361248 0.000000 0.000000 0.000000 
-0.454747 33.641895 -1.410280 0.000000 0.000000 0.000000 -3.875747 -12.055869 -1.667363 -4.370160 24.016140 5.533796 27.218119 1.089726 0.342891 -20.130601 -1.023403 -2.094159 -0.078219 -0.000403 -0.082954 0.000000 0.000000 0.000000 -3.875747 -12.055869 -1.667363 -12.827920 -6.833444 -14.955094 21.677839 -9.877436 2.379958 -1.856082 -0.006349 10.421743 0.014128 -0.041601 0.420725 0.000000 0.000000 0.000000 -3.875747 -12.055869 -1.667363 12.058880 1.447154 -2.581847 -4.012499 -8.643133 1.130686 0.000000 0.000000 0.000000 0.000000 0.000000 0.000000 -6.057995 4.397225 -2.296090 10.328853 -0.676214 1.688506 -3.600380 -1.712452 6.432342 0.000000 0.000000 0.000000 -6.057995 4.397225 -2.296090 2.790512 -11.261497 -2.773117 0.000000 0.000000 0.000000 4.071547 3.589795 -73.128602 4.466776 -14.060427 -1.860153 0.000000 0.000000 0.000000 -6.057995 4.397225 -2.296090 2.290484 5.847885 7.102362 0.000000 0.000000 0.000000 3.364617 5.746456 72.612308 4.636326 15.991071 2.900925 0.000000 0.000000 0.000000 
